<svg xmlns="http://www.w3.org/2000/svg" viewBox="0 0 1600 720" role="img" aria-labelledby="bannerTitle bannerDesc">
  <title id="bannerTitle">Integrated Fitness Coaching hero banner</title>
  <desc id="bannerDesc">A calm panoramic banner with the Integrated Fitness Coaching mark and restrained training and nutrition motifs.</desc>
  <defs>
    <linearGradient id="bg" x1="0%" x2="100%" y1="0%" y2="100%">
      <stop offset="0%" stop-color="#0d1d29"/>
      <stop offset="45%" stop-color="#183548"/>
      <stop offset="100%" stop-color="#244e6b"/>
    </linearGradient>
    <radialGradient id="glow" cx="50%" cy="46%" r="55%">
      <stop offset="0%" stop-color="#4fb4f5" stop-opacity=".24"/>
      <stop offset="100%" stop-color="#4fb4f5" stop-opacity="0"/>
    </radialGradient>
    <filter id="soft" x="-20%" y="-20%" width="140%" height="140%">
      <feGaussianBlur stdDeviation="24"/>
    </filter>
  </defs>
  <rect width="1600" height="720" rx="28" fill="url(#bg)"/>
  <circle cx="1150" cy="190" r="230" fill="url(#glow)"/>
  <circle cx="340" cy="520" r="180" fill="#4fb4f5" opacity=".08" filter="url(#soft)"/>
  <path d="M0 564c205-31 381-81 564-81 264 0 377 114 647 114 132 0 262-22 389-66v189H0Z" fill="#102533" opacity=".88"/>
  <path d="M62 117h492c-37 44-61 96-70 157-10 67-3 130 19 189H62Z" fill="#0b1620" opacity=".34"/>
  <image href="/assets/images/ifc-logo.svg" x="118" y="118" width="460" height="460" opacity=".96"/>
  <g fill="none" stroke-linecap="round" stroke-linejoin="round" opacity=".82">
    <path d="M870 201c46-31 92-47 145-47 82 0 152 38 212 112" stroke="#f4f2ea" stroke-width="10"/>
    <path d="M862 344c39 22 78 33 122 33 74 0 139-31 198-92" stroke="#4fb4f5" stroke-width="8"/>
    <path d="M894 488c34-16 68-24 104-24 70 0 126 24 180 78" stroke="#f4f2ea" stroke-width="8"/>
  </g>
  <g transform="translate(1014 430)" fill="none" stroke-linecap="round" stroke-linejoin="round" opacity=".94">
    <ellipse cx="92" cy="54" rx="82" ry="48" stroke="#4fb4f5" stroke-width="10"/>
    <ellipse cx="73" cy="52" rx="28" ry="20" stroke="#4fb4f5" stroke-width="7"/>
    <path d="M32 82c36 18 90 18 125 0" stroke="#f4f2ea" stroke-width="7"/>
  </g>
  <g transform="translate(1288 404)" fill="none" stroke-linecap="round" stroke-linejoin="round" opacity=".96">
    <path d="M26 42c0-22 18-38 41-38 16 0 29 7 37 20 9-5 18-7 29-7 29 0 50 20 50 45 0 25-21 44-47 44H72C45 106 26 79 26 42Z" stroke="#4fb4f5" stroke-width="10"/>
  </g>
  <g transform="translate(1218 192)" fill="none" stroke="#4fb4f5" stroke-linecap="round" opacity=".95">
    <path d="M22 38h118" stroke-width="15"/>
    <path d="M60 10v56M102 10v56" stroke-width="12"/>
    <path d="M0 38h20M140 38h20" stroke-width="9"/>
  </g>
</svg>
